<svg width="20" height="20" viewBox="0 0 20 20" fill="none" xmlns="http://www.w3.org/2000/svg">
<path d="M11.31 18.4C9.98774 18.6066 8.63535 18.498 7.36296 18.083C6.09057 17.6681 4.93413 16.9586 3.98779 16.0123C3.04144 15.0659 2.33193 13.9095 1.91701 12.6371C1.50209 11.3647 1.39348 10.0123 1.60004 8.69C1.07877 7.69851 0.888291 6.56629 1.05644 5.45882C1.2246 4.35135 1.74257 3.32669 2.53464 2.53461C3.32672 1.74254 4.35138 1.22457 5.45885 1.05641C6.56632 0.88826 7.69855 1.07874 8.69003 1.6C10.0123 1.39345 11.3647 1.50206 12.6371 1.91698C13.9095 2.3319 15.0659 3.04141 16.0123 3.98776C16.9586 4.9341 17.6681 6.09054 18.0831 7.36293C18.498 8.63532 18.6066 9.98771 18.4 11.31C18.9213 12.3015 19.1118 13.4337 18.9436 14.5412C18.7755 15.6487 18.2575 16.6733 17.4654 17.4654C16.6734 18.2575 15.6487 18.7754 14.5412 18.9436C13.4337 19.1117 12.3015 18.9213 11.31 18.4ZM10.052 15.156H10.012C12.884 15.156 14.315 13.77 14.315 11.913C14.315 10.715 13.764 9.44201 11.589 8.955L9.60604 8.51501C8.85104 8.34301 7.98404 8.115 7.98404 7.4C7.98404 6.685 8.60404 6.18701 9.70804 6.18701C11.938 6.18701 11.735 7.715 12.839 7.715C13.415 7.715 13.932 7.373 13.932 6.785C13.932 5.415 11.735 4.38501 9.87604 4.38501C7.85504 4.38501 5.70304 5.24401 5.70304 7.52901C5.70304 8.62701 6.09703 9.799 8.26303 10.342L10.952 11.013C11.768 11.215 11.97 11.672 11.97 12.085C11.97 12.772 11.286 13.443 10.052 13.443C7.63504 13.443 7.97404 11.586 6.67804 11.586C6.09804 11.586 5.67504 11.984 5.67504 12.557C5.67504 13.671 7.02704 15.155 10.052 15.155V15.156Z" fill="#FF5300"/>
</svg>